<svg width="171" height="48" viewBox="0 0 171 48" fill="none" xmlns="http://www.w3.org/2000/svg">
<path d="M47.336 20.952H44.232V35H39.688V20.952H37.672V17.272H39.688V16.376C39.688 14.2 40.3067 12.6 41.544 11.576C42.7813 10.552 44.648 10.072 47.144 10.136V13.912C46.056 13.8907 45.2987 14.072 44.872 14.456C44.4453 14.84 44.232 15.5333 44.232 16.536V17.272H47.336V20.952ZM52.5113 15.16C51.7219 15.16 51.0606 14.9147 50.5273 14.424C50.0153 13.912 49.7593 13.2827 49.7593 12.536C49.7593 11.7893 50.0153 11.1707 50.5273 10.68C51.0606 10.168 51.7219 9.912 52.5113 9.912C53.3006 9.912 53.9513 10.168 54.4633 10.68C54.9966 11.1707 55.2633 11.7893 55.2633 12.536C55.2633 13.2827 54.9966 13.912 54.4633 14.424C53.9513 14.9147 53.3006 15.16 52.5113 15.16ZM54.7193 17.272V35H50.2393V17.272H54.7193ZM63.6255 11.32V35H59.1455V11.32H63.6255ZM90.0678 17.016C92.2438 17.016 93.9931 17.688 95.3158 19.032C96.6598 20.3547 97.3318 22.2107 97.3318 24.6V35H92.8518V25.208C92.8518 23.8213 92.4998 22.7653 91.7958 22.04C91.0918 21.2933 90.1318 20.92 88.9158 20.92C87.6998 20.92 86.7291 21.2933 86.0038 22.04C85.2998 22.7653 84.9478 23.8213 84.9478 25.208V35H80.4678V25.208C80.4678 23.8213 80.1158 22.7653 79.4118 22.04C78.7078 21.2933 77.7478 20.92 76.5318 20.92C75.2944 20.92 74.3131 21.2933 73.5878 22.04C72.8838 22.7653 72.5318 23.8213 72.5318 25.208V35H68.0518V17.272H72.5318V19.416C73.1078 18.6693 73.8438 18.0827 74.7398 17.656C75.6571 17.2293 76.6598 17.016 77.7478 17.016C79.1344 17.016 80.3718 17.3147 81.4598 17.912C82.5478 18.488 83.3904 19.32 83.9878 20.408C84.5638 19.384 85.3958 18.5627 86.4838 17.944C87.5931 17.3253 88.7878 17.016 90.0678 17.016ZM118.063 25.752C118.063 26.392 118.02 26.968 117.935 27.48H104.975C105.082 28.76 105.53 29.7627 106.319 30.488C107.108 31.2133 108.079 31.576 109.231 31.576C110.895 31.576 112.079 30.8613 112.783 29.432H117.615C117.103 31.1387 116.122 32.5467 114.671 33.656C113.22 34.744 111.439 35.288 109.327 35.288C107.62 35.288 106.084 34.9147 104.719 34.168C103.375 33.4 102.319 32.3227 101.551 30.936C100.804 29.5493 100.431 27.9493 100.431 26.136C100.431 24.3013 100.804 22.6907 101.551 21.304C102.298 19.9173 103.343 18.8507 104.687 18.104C106.031 17.3573 107.578 16.984 109.327 16.984C111.012 16.984 112.516 17.3467 113.839 18.072C115.183 18.7973 116.218 19.832 116.943 21.176C117.69 22.4987 118.063 24.024 118.063 25.752ZM113.423 24.472C113.402 23.32 112.986 22.4027 112.175 21.72C111.364 21.016 110.372 20.664 109.199 20.664C108.09 20.664 107.151 21.0053 106.383 21.688C105.636 22.3493 105.178 23.2773 105.007 24.472H113.423ZM129.461 20.952H126.357V35H121.813V20.952H119.797V17.272H121.813V16.376C121.813 14.2 122.432 12.6 123.669 11.576C124.906 10.552 126.773 10.072 129.269 10.136V13.912C128.181 13.8907 127.424 14.072 126.997 14.456C126.57 14.84 126.357 15.5333 126.357 16.536V17.272H129.461V20.952ZM131.212 26.072C131.212 24.28 131.564 22.6907 132.268 21.304C132.994 19.9173 133.964 18.8507 135.18 18.104C136.418 17.3573 137.794 16.984 139.308 16.984C140.631 16.984 141.783 17.2507 142.764 17.784C143.767 18.3173 144.567 18.9893 145.164 19.8V17.272H149.676V35H145.164V32.408C144.588 33.24 143.788 33.9333 142.764 34.488C141.762 35.0213 140.599 35.288 139.276 35.288C137.783 35.288 136.418 34.904 135.18 34.136C133.964 33.368 132.994 32.2907 132.268 30.904C131.564 29.496 131.212 27.8853 131.212 26.072ZM145.164 26.136C145.164 25.048 144.951 24.12 144.524 23.352C144.098 22.5627 143.522 21.9653 142.796 21.56C142.071 21.1333 141.292 20.92 140.46 20.92C139.628 20.92 138.86 21.1227 138.156 21.528C137.452 21.9333 136.876 22.5307 136.428 23.32C136.002 24.088 135.788 25.0053 135.788 26.072C135.788 27.1387 136.002 28.0773 136.428 28.888C136.876 29.6773 137.452 30.2853 138.156 30.712C138.882 31.1387 139.65 31.352 140.46 31.352C141.292 31.352 142.071 31.1493 142.796 30.744C143.522 30.3173 144.098 29.72 144.524 28.952C144.951 28.1627 145.164 27.224 145.164 26.136ZM161.444 30.872L165.924 17.272H170.692L164.132 35H158.692L152.164 17.272H156.964L161.444 30.872Z" fill="white"/>
<path fill-rule="evenodd" clip-rule="evenodd" d="M0 18C0 15.7909 1.79086 14 4 14H19C21.0316 14 22.7095 15.5146 22.966 17.4763L29.1877 14.7111C30.5103 14.1233 32 15.0914 32 16.5388V31.4612C32 32.9086 30.5103 33.8767 29.1877 33.2889L22.966 30.5237C22.7095 32.4853 21.0316 34 19 34H4C1.79086 34 0 32.2091 0 30V18Z" fill="white"/>
</svg>
