<svg width="24" height="24" viewBox="0 0 24 24" fill="none" xmlns="http://www.w3.org/2000/svg">
<path d="M15.0303 6.53033C15.3232 6.23744 15.3232 5.76256 15.0303 5.46967C14.7374 5.17678 14.2626 5.17678 13.9697 5.46967L15.0303 6.53033ZM8.5 12L7.96967 11.4697C7.67678 11.7626 7.67678 12.2374 7.96967 12.5303L8.5 12ZM13.9697 18.5303C14.2626 18.8232 14.7374 18.8232 15.0303 18.5303C15.3232 18.2374 15.3232 17.7626 15.0303 17.4697L13.9697 18.5303ZM13.9697 5.46967L7.96967 11.4697L9.03033 12.5303L15.0303 6.53033L13.9697 5.46967ZM7.96967 12.5303L13.9697 18.5303L15.0303 17.4697L9.03033 11.4697L7.96967 12.5303Z" fill="#FFFFFF"/>
</svg>
