<svg width="20" height="20" viewBox="0 0 20 20" fill="none" xmlns="http://www.w3.org/2000/svg">
<path d="M8.03317 6.66911L10 2.70109L11.9668 6.66911C12.1528 7.04425 12.5113 7.30275 12.9243 7.36249L17.3156 7.99783L14.1402 11.0797C13.84 11.371 13.7022 11.7918 13.7734 12.205L14.5237 16.5607L10.5906 14.5019C10.2208 14.3083 9.77925 14.3083 9.40938 14.5019L5.47631 16.5607L6.22662 12.205C6.29779 11.7918 6.16 11.371 5.85979 11.0797L2.68443 7.99783L7.07571 7.36249C7.48868 7.30275 7.84722 7.04425 8.03317 6.66911ZM2.34716 7.67049C2.34725 7.67058 2.34734 7.67067 2.34744 7.67076L2.34716 7.67049Z" stroke="white" stroke-width="1.5"/>
</svg>
